<?xml version="1.0" encoding="UTF-8" standalone="no"?>
<!DOCTYPE svg PUBLIC "-//W3C//DTD SVG 1.1//EN"
 "http://www.w3.org/Graphics/SVG/1.1/DTD/svg11.dtd">
<!-- Generated by graphviz version 9.0.0 (20230911.1827)
 -->
<!-- Title: G Pages: 1 -->
<svg width="1930pt" height="937pt"
 viewBox="0.00 0.00 1930.45 936.64" xmlns="http://www.w3.org/2000/svg" xmlns:xlink="http://www.w3.org/1999/xlink">
<g id="graph0" class="graph" transform="scale(1 1) rotate(0) translate(21.6 915.04)">
<title>G</title>
<polygon fill="#111111" stroke="none" points="-21.6,21.6 -21.6,-915.04 1908.85,-915.04 1908.85,21.6 -21.6,21.6"/>
<!-- app.js -->
<g id="node1" class="node">
<title>app.js</title>
<path fill="none" stroke="#c6c5fe" d="M103.08,-455.69C103.08,-455.69 65.17,-455.69 65.17,-455.69 61.08,-455.69 57,-451.61 57,-447.52 57,-447.52 57,-439.36 57,-439.36 57,-435.27 61.08,-431.19 65.17,-431.19 65.17,-431.19 103.08,-431.19 103.08,-431.19 107.17,-431.19 111.25,-435.27 111.25,-439.36 111.25,-439.36 111.25,-447.52 111.25,-447.52 111.25,-451.61 107.17,-455.69 103.08,-455.69"/>
<text text-anchor="middle" x="84.12" y="-438.39" font-family="Arial" font-size="14.00" fill="#c6c5fe">app.js</text>
</g>
<!-- data/buildings.js -->
<g id="node2" class="node">
<title>data/buildings.js</title>
<path fill="none" stroke="#c6c5fe" d="M1704.83,-561.69C1704.83,-561.69 1603.92,-561.69 1603.92,-561.69 1599.83,-561.69 1595.75,-557.61 1595.75,-553.52 1595.75,-553.52 1595.75,-545.36 1595.75,-545.36 1595.75,-541.27 1599.83,-537.19 1603.92,-537.19 1603.92,-537.19 1704.83,-537.19 1704.83,-537.19 1708.92,-537.19 1713,-541.27 1713,-545.36 1713,-545.36 1713,-553.52 1713,-553.52 1713,-557.61 1708.92,-561.69 1704.83,-561.69"/>
<text text-anchor="middle" x="1654.38" y="-544.39" font-family="Arial" font-size="14.00" fill="#c6c5fe">data/buildings.js</text>
</g>
<!-- app.js&#45;&gt;data/buildings.js -->
<g id="edge1" class="edge">
<title>app.js&#45;&gt;data/buildings.js</title>
<path fill="none" stroke="#757575" d="M111.45,-444.11C129.54,-445.93 152.97,-451.18 168.25,-465.44 204.62,-499.39 177.3,-529.61 204.25,-571.44 304.18,-726.53 322.51,-855.44 507,-855.44 507,-855.44 507,-855.44 1088,-855.44 1312.57,-855.44 1384.37,-814.69 1559.75,-674.44 1596.02,-645.44 1625.66,-599.29 1641.31,-571.92"/>
<polygon fill="#757575" stroke="#757575" points="1644.24,-573.86 1646.05,-563.42 1638.13,-570.45 1644.24,-573.86"/>
</g>
<!-- examples/game.js -->
<g id="node3" class="node">
<title>examples/game.js</title>
<path fill="none" stroke="#c6c5fe" d="M362.83,-106.69C362.83,-106.69 247.67,-106.69 247.67,-106.69 243.58,-106.69 239.5,-102.61 239.5,-98.52 239.5,-98.52 239.5,-90.36 239.5,-90.36 239.5,-86.27 243.58,-82.19 247.67,-82.19 247.67,-82.19 362.83,-82.19 362.83,-82.19 366.92,-82.19 371,-86.27 371,-90.36 371,-90.36 371,-98.52 371,-98.52 371,-102.61 366.92,-106.69 362.83,-106.69"/>
<text text-anchor="middle" x="305.25" y="-89.39" font-family="Arial" font-size="14.00" fill="#c6c5fe">examples/game.js</text>
</g>
<!-- app.js&#45;&gt;examples/game.js -->
<g id="edge2" class="edge">
<title>app.js&#45;&gt;examples/game.js</title>
<path fill="none" stroke="#757575" d="M86.59,-430.87C92.52,-385.44 118.68,-227.69 204.25,-138.44 215.56,-126.65 230.57,-117.81 245.52,-111.27"/>
<polygon fill="#757575" stroke="#757575" points="246.46,-114.67 254.41,-107.67 243.83,-108.18 246.46,-114.67"/>
</g>
<!-- js/general/drawTableImage.js -->
<g id="node4" class="node">
<title>js/general/drawTableImage.js</title>
<path fill="none" stroke="#cfffac" d="M398.08,-495.69C398.08,-495.69 212.42,-495.69 212.42,-495.69 208.33,-495.69 204.25,-491.61 204.25,-487.52 204.25,-487.52 204.25,-479.36 204.25,-479.36 204.25,-475.27 208.33,-471.19 212.42,-471.19 212.42,-471.19 398.08,-471.19 398.08,-471.19 402.17,-471.19 406.25,-475.27 406.25,-479.36 406.25,-479.36 406.25,-487.52 406.25,-487.52 406.25,-491.61 402.17,-495.69 398.08,-495.69"/>
<text text-anchor="middle" x="305.25" y="-478.39" font-family="Arial" font-size="14.00" fill="#cfffac">js/general/drawTableImage.js</text>
</g>
<!-- app.js&#45;&gt;js/general/drawTableImage.js -->
<g id="edge3" class="edge">
<title>app.js&#45;&gt;js/general/drawTableImage.js</title>
<path fill="none" stroke="#757575" d="M111.56,-448.26C139.17,-453.31 183.89,-461.47 223.29,-468.66"/>
<polygon fill="#757575" stroke="#757575" points="222.56,-472.08 233.03,-470.44 223.82,-465.2 222.56,-472.08"/>
</g>
<!-- js/general/enums.js -->
<g id="node5" class="node">
<title>js/general/enums.js</title>
<path fill="none" stroke="#cfffac" d="M1879.08,-476.69C1879.08,-476.69 1757.17,-476.69 1757.17,-476.69 1753.08,-476.69 1749,-472.61 1749,-468.52 1749,-468.52 1749,-460.36 1749,-460.36 1749,-456.27 1753.08,-452.19 1757.17,-452.19 1757.17,-452.19 1879.08,-452.19 1879.08,-452.19 1883.17,-452.19 1887.25,-456.27 1887.25,-460.36 1887.25,-460.36 1887.25,-468.52 1887.25,-468.52 1887.25,-472.61 1883.17,-476.69 1879.08,-476.69"/>
<text text-anchor="middle" x="1818.12" y="-459.39" font-family="Arial" font-size="14.00" fill="#cfffac">js/general/enums.js</text>
</g>
<!-- app.js&#45;&gt;js/general/enums.js -->
<g id="edge4" class="edge">
<title>app.js&#45;&gt;js/general/enums.js</title>
<path fill="none" stroke="#757575" d="M111.51,-443.22C130.12,-444.57 154.16,-449.6 168.25,-465.44 243.17,-549.62 142.92,-621.89 204.25,-716.44 289.07,-847.2 351.14,-893.44 507,-893.44 507,-893.44 507,-893.44 1500.62,-893.44 1613.19,-893.44 1643.18,-843.73 1713,-755.44 1779.4,-671.47 1805.55,-541.64 1813.85,-488.43"/>
<polygon fill="#757575" stroke="#757575" points="1817.29,-489.08 1815.3,-478.67 1810.37,-488.05 1817.29,-489.08"/>
</g>
<!-- js/general/game.js -->
<g id="node6" class="node">
<title>js/general/game.js</title>
<path fill="none" stroke="#c6c5fe" d="M565.58,-455.69C565.58,-455.69 450.42,-455.69 450.42,-455.69 446.33,-455.69 442.25,-451.61 442.25,-447.52 442.25,-447.52 442.25,-439.36 442.25,-439.36 442.25,-435.27 446.33,-431.19 450.42,-431.19 450.42,-431.19 565.58,-431.19 565.58,-431.19 569.67,-431.19 573.75,-435.27 573.75,-439.36 573.75,-439.36 573.75,-447.52 573.75,-447.52 573.75,-451.61 569.67,-455.69 565.58,-455.69"/>
<text text-anchor="middle" x="508" y="-438.39" font-family="Arial" font-size="14.00" fill="#c6c5fe">js/general/game.js</text>
</g>
<!-- app.js&#45;&gt;js/general/game.js -->
<g id="edge5" class="edge">
<title>app.js&#45;&gt;js/general/game.js</title>
<path fill="none" stroke="#757575" d="M111.52,-443.44C174.26,-443.44 334.31,-443.44 430.47,-443.44"/>
<polygon fill="#757575" stroke="#757575" points="430.36,-446.94 440.36,-443.44 430.36,-439.94 430.36,-446.94"/>
</g>
<!-- js/general/tests.js -->
<g id="node7" class="node">
<title>js/general/tests.js</title>
<path fill="none" stroke="#c6c5fe" d="M360.21,-415.69C360.21,-415.69 250.29,-415.69 250.29,-415.69 246.21,-415.69 242.12,-411.61 242.12,-407.52 242.12,-407.52 242.12,-399.36 242.12,-399.36 242.12,-395.27 246.21,-391.19 250.29,-391.19 250.29,-391.19 360.21,-391.19 360.21,-391.19 364.29,-391.19 368.38,-395.27 368.38,-399.36 368.38,-399.36 368.38,-407.52 368.38,-407.52 368.38,-411.61 364.29,-415.69 360.21,-415.69"/>
<text text-anchor="middle" x="305.25" y="-398.39" font-family="Arial" font-size="14.00" fill="#c6c5fe">js/general/tests.js</text>
</g>
<!-- app.js&#45;&gt;js/general/tests.js -->
<g id="edge6" class="edge">
<title>app.js&#45;&gt;js/general/tests.js</title>
<path fill="none" stroke="#757575" d="M111.56,-438.61C140.96,-433.25 189.74,-424.34 230.87,-416.83"/>
<polygon fill="#757575" stroke="#757575" points="231.27,-420.32 240.47,-415.08 230.01,-413.43 231.27,-420.32"/>
</g>
<!-- js/general/utils.js -->
<g id="node8" class="node">
<title>js/general/utils.js</title>
<path fill="none" stroke="#c6c5fe" d="M1551.58,-356.69C1551.58,-356.69 1447.67,-356.69 1447.67,-356.69 1443.58,-356.69 1439.5,-352.61 1439.5,-348.52 1439.5,-348.52 1439.5,-340.36 1439.5,-340.36 1439.5,-336.27 1443.58,-332.19 1447.67,-332.19 1447.67,-332.19 1551.58,-332.19 1551.58,-332.19 1555.67,-332.19 1559.75,-336.27 1559.75,-340.36 1559.75,-340.36 1559.75,-348.52 1559.75,-348.52 1559.75,-352.61 1555.67,-356.69 1551.58,-356.69"/>
<text text-anchor="middle" x="1499.62" y="-339.39" font-family="Arial" font-size="14.00" fill="#c6c5fe">js/general/utils.js</text>
</g>
<!-- app.js&#45;&gt;js/general/utils.js -->
<g id="edge7" class="edge">
<title>app.js&#45;&gt;js/general/utils.js</title>
<path fill="none" stroke="#757575" d="M92.18,-430.73C108.22,-403.09 150.24,-337.35 204.25,-304.44 362.4,-208.05 425.91,-230.89 609.75,-208.44 959.93,-165.68 1092.39,-45.11 1403.5,-211.44 1448.09,-235.28 1476.68,-290.33 1489.95,-321.62"/>
<polygon fill="#757575" stroke="#757575" points="1486.58,-322.62 1493.58,-330.57 1493.07,-319.99 1486.58,-322.62"/>
</g>
<!-- js/objects/player.js -->
<g id="node9" class="node">
<title>js/objects/player.js</title>
<path fill="none" stroke="#c6c5fe" d="M734.58,-241.69C734.58,-241.69 617.92,-241.69 617.92,-241.69 613.83,-241.69 609.75,-237.61 609.75,-233.52 609.75,-233.52 609.75,-225.36 609.75,-225.36 609.75,-221.27 613.83,-217.19 617.92,-217.19 617.92,-217.19 734.58,-217.19 734.58,-217.19 738.67,-217.19 742.75,-221.27 742.75,-225.36 742.75,-225.36 742.75,-233.52 742.75,-233.52 742.75,-237.61 738.67,-241.69 734.58,-241.69"/>
<text text-anchor="middle" x="676.25" y="-224.39" font-family="Arial" font-size="14.00" fill="#c6c5fe">js/objects/player.js</text>
</g>
<!-- app.js&#45;&gt;js/objects/player.js -->
<g id="edge8" class="edge">
<title>app.js&#45;&gt;js/objects/player.js</title>
<path fill="none" stroke="#757575" d="M107.02,-430.89C130.54,-417.72 169.27,-396.97 204.25,-382.44 349.11,-322.27 526.72,-270.15 616.82,-245.17"/>
<polygon fill="#757575" stroke="#757575" points="617.73,-248.55 626.44,-242.52 615.87,-241.8 617.73,-248.55"/>
</g>
<!-- js/objects/tile.js -->
<g id="node10" class="node">
<title>js/objects/tile.js</title>
<path fill="none" stroke="#c6c5fe" d="M914.08,-705.69C914.08,-705.69 817.67,-705.69 817.67,-705.69 813.58,-705.69 809.5,-701.61 809.5,-697.52 809.5,-697.52 809.5,-689.36 809.5,-689.36 809.5,-685.27 813.58,-681.19 817.67,-681.19 817.67,-681.19 914.08,-681.19 914.08,-681.19 918.17,-681.19 922.25,-685.27 922.25,-689.36 922.25,-689.36 922.25,-697.52 922.25,-697.52 922.25,-701.61 918.17,-705.69 914.08,-705.69"/>
<text text-anchor="middle" x="865.88" y="-688.39" font-family="Arial" font-size="14.00" fill="#c6c5fe">js/objects/tile.js</text>
</g>
<!-- app.js&#45;&gt;js/objects/tile.js -->
<g id="edge9" class="edge">
<title>app.js&#45;&gt;js/objects/tile.js</title>
<path fill="none" stroke="#757575" d="M111.71,-446.57C128.81,-449.49 150.99,-455.04 168.25,-465.44 188.46,-477.61 184.79,-491.11 204.25,-504.44 364.09,-613.93 421.77,-617.54 609.75,-664.44 672.38,-680.06 745.78,-687.29 797.73,-690.62"/>
<polygon fill="#757575" stroke="#757575" points="797.43,-694.11 807.63,-691.22 797.86,-687.12 797.43,-694.11"/>
</g>
<!-- data/buildings.js&#45;&gt;js/general/enums.js -->
<g id="edge12" class="edge">
<title>data/buildings.js&#45;&gt;js/general/enums.js</title>
<path fill="none" stroke="#757575" d="M1679.59,-536.71C1707.07,-522.28 1752.07,-498.62 1783.08,-482.33"/>
<polygon fill="#757575" stroke="#757575" points="1784.44,-485.57 1791.67,-477.82 1781.19,-479.37 1784.44,-485.57"/>
</g>
<!-- examples/game.js&#45;&gt;js/general/utils.js -->
<g id="edge16" class="edge">
<title>examples/game.js&#45;&gt;js/general/utils.js</title>
<path fill="none" stroke="#757575" d="M371.19,-89.35C444.86,-84.03 568.62,-76.44 675.25,-76.44 675.25,-76.44 675.25,-76.44 1088,-76.44 1230.9,-76.44 1291.15,-50.13 1403.5,-138.44 1462.82,-185.06 1486.63,-277.24 1494.85,-320.7"/>
<polygon fill="#757575" stroke="#757575" points="1491.37,-321.1 1496.55,-330.34 1498.26,-319.88 1491.37,-321.1"/>
</g>
<!-- js/general/game.js&#45;&gt;data/buildings.js -->
<g id="edge20" class="edge">
<title>js/general/game.js&#45;&gt;data/buildings.js</title>
<path fill="none" stroke="#757575" d="M521.66,-455.95C539.55,-472.71 574.04,-501.82 609.75,-514.44 776.28,-573.27 1226.9,-556.21 1403.5,-554.44 1464.48,-553.83 1533.82,-552.38 1583.96,-551.2"/>
<polygon fill="#757575" stroke="#757575" points="1583.89,-554.7 1593.8,-550.97 1583.72,-547.7 1583.89,-554.7"/>
</g>
<!-- js/general/game.js&#45;&gt;js/general/enums.js -->
<g id="edge23" class="edge">
<title>js/general/game.js&#45;&gt;js/general/enums.js</title>
<path fill="none" stroke="#757575" d="M574.06,-449.37C721.56,-462.15 1092.68,-490.57 1403.5,-483.44 1519.67,-480.77 1654.05,-473.9 1737.32,-469.19"/>
<polygon fill="#757575" stroke="#757575" points="1737.43,-472.69 1747.22,-468.63 1737.03,-465.7 1737.43,-472.69"/>
</g>
<!-- js/general/game.js&#45;&gt;js/general/utils.js -->
<g id="edge25" class="edge">
<title>js/general/game.js&#45;&gt;js/general/utils.js</title>
<path fill="none" stroke="#757575" d="M524.64,-430.86C543.55,-416.42 576.95,-393.32 609.75,-382.44 868.8,-296.5 948.39,-336.57 1221,-323.44 1302.02,-319.54 1322.87,-314.64 1403.5,-323.44 1415.22,-324.72 1427.61,-326.86 1439.44,-329.29"/>
<polygon fill="#757575" stroke="#757575" points="1438.58,-332.69 1449.09,-331.38 1440.06,-325.85 1438.58,-332.69"/>
</g>
<!-- js/general/game.js&#45;&gt;js/objects/player.js -->
<g id="edge27" class="edge">
<title>js/general/game.js&#45;&gt;js/objects/player.js</title>
<path fill="none" stroke="#757575" d="M512.37,-431.02C521.98,-397.89 552.55,-306.46 609.75,-255.44 613.1,-252.45 616.82,-249.79 620.76,-247.42"/>
<polygon fill="#757575" stroke="#757575" points="622.3,-250.56 629.52,-242.81 619.04,-244.37 622.3,-250.56"/>
</g>
<!-- js/general/game.js&#45;&gt;js/objects/tile.js -->
<g id="edge28" class="edge">
<title>js/general/game.js&#45;&gt;js/objects/tile.js</title>
<path fill="none" stroke="#757575" d="M512.06,-456.15C520.89,-489.98 549.7,-582.82 609.75,-629.44 638.86,-652.04 732.69,-671.58 798.05,-682.94"/>
<polygon fill="#757575" stroke="#757575" points="797.15,-686.34 807.6,-684.57 798.33,-679.44 797.15,-686.34"/>
</g>
<!-- data/biomes.js -->
<g id="node12" class="node">
<title>data/biomes.js</title>
<path fill="none" stroke="#c6c5fe" d="M1132.96,-628.69C1132.96,-628.69 1041.04,-628.69 1041.04,-628.69 1036.96,-628.69 1032.88,-624.61 1032.88,-620.52 1032.88,-620.52 1032.88,-612.36 1032.88,-612.36 1032.88,-608.27 1036.96,-604.19 1041.04,-604.19 1041.04,-604.19 1132.96,-604.19 1132.96,-604.19 1137.04,-604.19 1141.12,-608.27 1141.12,-612.36 1141.12,-612.36 1141.12,-620.52 1141.12,-620.52 1141.12,-624.61 1137.04,-628.69 1132.96,-628.69"/>
<text text-anchor="middle" x="1087" y="-611.39" font-family="Arial" font-size="14.00" fill="#c6c5fe">data/biomes.js</text>
</g>
<!-- js/general/game.js&#45;&gt;data/biomes.js -->
<g id="edge19" class="edge">
<title>js/general/game.js&#45;&gt;data/biomes.js</title>
<path fill="none" stroke="#757575" d="M513.13,-455.77C523.73,-485.26 555,-559.65 609.75,-590.44 678.4,-629.04 907.97,-624.63 1021.42,-619.82"/>
<polygon fill="#757575" stroke="#757575" points="1021.34,-623.32 1031.17,-619.39 1021.03,-616.33 1021.34,-623.32"/>
</g>
<!-- data/items.js -->
<g id="node14" class="node">
<title>data/items.js</title>
<path fill="none" stroke="#c6c5fe" d="M1539.21,-629.69C1539.21,-629.69 1460.04,-629.69 1460.04,-629.69 1455.96,-629.69 1451.88,-625.61 1451.88,-621.52 1451.88,-621.52 1451.88,-613.36 1451.88,-613.36 1451.88,-609.27 1455.96,-605.19 1460.04,-605.19 1460.04,-605.19 1539.21,-605.19 1539.21,-605.19 1543.29,-605.19 1547.38,-609.27 1547.38,-613.36 1547.38,-613.36 1547.38,-621.52 1547.38,-621.52 1547.38,-625.61 1543.29,-629.69 1539.21,-629.69"/>
<text text-anchor="middle" x="1499.62" y="-612.39" font-family="Arial" font-size="14.00" fill="#c6c5fe">data/items.js</text>
</g>
<!-- js/general/game.js&#45;&gt;data/items.js -->
<g id="edge21" class="edge">
<title>js/general/game.js&#45;&gt;data/items.js</title>
<path fill="none" stroke="#757575" d="M516.16,-456.07C530.43,-479.86 564.94,-530.86 609.75,-552.44 614.45,-554.7 1243.01,-599.35 1440.17,-613.31"/>
<polygon fill="#757575" stroke="#757575" points="1439.7,-616.78 1449.92,-614 1440.19,-609.8 1439.7,-616.78"/>
</g>
<!-- js/general/data.js -->
<g id="node20" class="node">
<title>js/general/data.js</title>
<path fill="none" stroke="#c6c5fe" d="M1365.33,-356.69C1365.33,-356.69 1259.17,-356.69 1259.17,-356.69 1255.08,-356.69 1251,-352.61 1251,-348.52 1251,-348.52 1251,-340.36 1251,-340.36 1251,-336.27 1255.08,-332.19 1259.17,-332.19 1259.17,-332.19 1365.33,-332.19 1365.33,-332.19 1369.42,-332.19 1373.5,-336.27 1373.5,-340.36 1373.5,-340.36 1373.5,-348.52 1373.5,-348.52 1373.5,-352.61 1369.42,-356.69 1365.33,-356.69"/>
<text text-anchor="middle" x="1312.25" y="-339.39" font-family="Arial" font-size="14.00" fill="#c6c5fe">js/general/data.js</text>
</g>
<!-- js/general/game.js&#45;&gt;js/general/data.js -->
<g id="edge22" class="edge">
<title>js/general/game.js&#45;&gt;js/general/data.js</title>
<path fill="none" stroke="#757575" d="M574.09,-439.18C621.04,-435.85 685.89,-430.74 742.75,-424.44 921.96,-404.56 1131.79,-372.83 1239.46,-355.92"/>
<polygon fill="#757575" stroke="#757575" points="1239.99,-359.38 1249.32,-354.37 1238.9,-352.47 1239.99,-359.38"/>
</g>
<!-- js/general/parsers.js -->
<g id="node21" class="node">
<title>js/general/parsers.js</title>
<path fill="none" stroke="#c6c5fe" d="M1150.58,-279.69C1150.58,-279.69 1023.42,-279.69 1023.42,-279.69 1019.33,-279.69 1015.25,-275.61 1015.25,-271.52 1015.25,-271.52 1015.25,-263.36 1015.25,-263.36 1015.25,-259.27 1019.33,-255.19 1023.42,-255.19 1023.42,-255.19 1150.58,-255.19 1150.58,-255.19 1154.67,-255.19 1158.75,-259.27 1158.75,-263.36 1158.75,-263.36 1158.75,-271.52 1158.75,-271.52 1158.75,-275.61 1154.67,-279.69 1150.58,-279.69"/>
<text text-anchor="middle" x="1087" y="-262.39" font-family="Arial" font-size="14.00" fill="#c6c5fe">js/general/parsers.js</text>
</g>
<!-- js/general/game.js&#45;&gt;js/general/parsers.js -->
<g id="edge24" class="edge">
<title>js/general/game.js&#45;&gt;js/general/parsers.js</title>
<path fill="none" stroke="#757575" d="M513.05,-430.86C523.48,-400.79 554.39,-324.91 609.75,-293.44 674.8,-256.46 885.37,-258.73 1003.57,-263.27"/>
<polygon fill="#757575" stroke="#757575" points="1003.42,-266.77 1013.55,-263.67 1003.7,-259.77 1003.42,-266.77"/>
</g>
<!-- js/objects/board.js -->
<g id="node22" class="node">
<title>js/objects/board.js</title>
<path fill="none" stroke="#cfffac" d="M733.83,-415.69C733.83,-415.69 618.67,-415.69 618.67,-415.69 614.58,-415.69 610.5,-411.61 610.5,-407.52 610.5,-407.52 610.5,-399.36 610.5,-399.36 610.5,-395.27 614.58,-391.19 618.67,-391.19 618.67,-391.19 733.83,-391.19 733.83,-391.19 737.92,-391.19 742,-395.27 742,-399.36 742,-399.36 742,-407.52 742,-407.52 742,-411.61 737.92,-415.69 733.83,-415.69"/>
<text text-anchor="middle" x="676.25" y="-398.39" font-family="Arial" font-size="14.00" fill="#cfffac">js/objects/board.js</text>
</g>
<!-- js/general/game.js&#45;&gt;js/objects/board.js -->
<g id="edge26" class="edge">
<title>js/general/game.js&#45;&gt;js/objects/board.js</title>
<path fill="none" stroke="#757575" d="M561.6,-430.78C577.37,-426.99 594.84,-422.79 611.26,-418.84"/>
<polygon fill="#757575" stroke="#757575" points="612.04,-422.25 620.95,-416.5 610.41,-415.44 612.04,-422.25"/>
</g>
<!-- js/general/tests.js&#45;&gt;js/general/enums.js -->
<g id="edge33" class="edge">
<title>js/general/tests.js&#45;&gt;js/general/enums.js</title>
<path fill="none" stroke="#757575" d="M319.2,-390.74C371.52,-340.2 574.36,-151.79 778.75,-62.44 906.39,-6.64 946.69,-0.44 1086,-0.44 1086,-0.44 1086,-0.44 1500.62,-0.44 1599.21,-0.44 1644.63,6.58 1713,-64.44 1766.39,-119.9 1803.43,-363.37 1814.02,-440.74"/>
<polygon fill="#757575" stroke="#757575" points="1810.54,-441.12 1815.34,-450.56 1817.48,-440.18 1810.54,-441.12"/>
</g>
<!-- js/general/tests.js&#45;&gt;js/general/game.js -->
<g id="edge34" class="edge">
<title>js/general/tests.js&#45;&gt;js/general/game.js</title>
<path fill="none" stroke="#757575" d="M368.67,-415.88C388.77,-419.88 411.25,-424.36 432.14,-428.52"/>
<polygon fill="#757575" stroke="#757575" points="431.26,-431.92 441.75,-430.44 432.63,-425.05 431.26,-431.92"/>
</g>
<!-- js/general/utils.js&#45;&gt;data/buildings.js -->
<g id="edge35" class="edge">
<title>js/general/utils.js&#45;&gt;data/buildings.js</title>
<path fill="none" stroke="#757575" d="M1509.95,-356.95C1535.25,-390.91 1605.41,-485.07 1637.27,-527.82"/>
<polygon fill="#757575" stroke="#757575" points="1634.29,-529.69 1643.07,-535.61 1639.9,-525.5 1634.29,-529.69"/>
</g>
<!-- js/general/utils.js&#45;&gt;js/general/enums.js -->
<g id="edge37" class="edge">
<title>js/general/utils.js&#45;&gt;js/general/enums.js</title>
<path fill="none" stroke="#757575" d="M1559.82,-345.19C1603.82,-347.72 1664.39,-355.43 1713,-377.44 1747.4,-393.01 1779.54,-423.19 1798.77,-443.58"/>
<polygon fill="#757575" stroke="#757575" points="1796.05,-445.8 1805.4,-450.79 1801.21,-441.06 1796.05,-445.8"/>
</g>
<!-- data/crafting.js -->
<g id="node13" class="node">
<title>data/crafting.js</title>
<path fill="none" stroke="#c6c5fe" d="M1699.96,-410.69C1699.96,-410.69 1608.79,-410.69 1608.79,-410.69 1604.71,-410.69 1600.62,-406.61 1600.62,-402.52 1600.62,-402.52 1600.62,-394.36 1600.62,-394.36 1600.62,-390.27 1604.71,-386.19 1608.79,-386.19 1608.79,-386.19 1699.96,-386.19 1699.96,-386.19 1704.04,-386.19 1708.12,-390.27 1708.12,-394.36 1708.12,-394.36 1708.12,-402.52 1708.12,-402.52 1708.12,-406.61 1704.04,-410.69 1699.96,-410.69"/>
<text text-anchor="middle" x="1654.38" y="-393.39" font-family="Arial" font-size="14.00" fill="#c6c5fe">data/crafting.js</text>
</g>
<!-- js/general/utils.js&#45;&gt;data/crafting.js -->
<g id="edge36" class="edge">
<title>js/general/utils.js&#45;&gt;data/crafting.js</title>
<path fill="none" stroke="#757575" d="M1536.44,-357.1C1557.43,-364.52 1584.18,-373.98 1606.79,-381.97"/>
<polygon fill="#757575" stroke="#757575" points="1605.5,-385.23 1616.09,-385.26 1607.83,-378.63 1605.5,-385.23"/>
</g>
<!-- js/objects/player.js&#45;&gt;js/general/enums.js -->
<g id="edge50" class="edge">
<title>js/objects/player.js&#45;&gt;js/general/enums.js</title>
<path fill="none" stroke="#757575" d="M691.68,-216.91C742.13,-174.41 916.81,-38.44 1086,-38.44 1086,-38.44 1086,-38.44 1500.62,-38.44 1702.58,-38.44 1790.73,-350.74 1811.9,-440.55"/>
<polygon fill="#757575" stroke="#757575" points="1808.47,-441.25 1814.11,-450.21 1815.29,-439.69 1808.47,-441.25"/>
</g>
<!-- js/objects/itemContainer.js -->
<g id="node26" class="node">
<title>js/objects/itemContainer.js</title>
<path fill="none" stroke="#c6c5fe" d="M1395.33,-474.69C1395.33,-474.69 1229.17,-474.69 1229.17,-474.69 1225.08,-474.69 1221,-470.61 1221,-466.52 1221,-466.52 1221,-458.36 1221,-458.36 1221,-454.27 1225.08,-450.19 1229.17,-450.19 1229.17,-450.19 1395.33,-450.19 1395.33,-450.19 1399.42,-450.19 1403.5,-454.27 1403.5,-458.36 1403.5,-458.36 1403.5,-466.52 1403.5,-466.52 1403.5,-470.61 1399.42,-474.69 1395.33,-474.69"/>
<text text-anchor="middle" x="1312.25" y="-457.39" font-family="Arial" font-size="14.00" fill="#c6c5fe">js/objects/itemContainer.js</text>
</g>
<!-- js/objects/player.js&#45;&gt;js/objects/itemContainer.js -->
<g id="edge51" class="edge">
<title>js/objects/player.js&#45;&gt;js/objects/itemContainer.js</title>
<path fill="none" stroke="#757575" d="M695.26,-241.99C741.65,-273.69 869.95,-357.53 989,-400.44 1060.42,-426.18 1144.8,-441.92 1209.29,-451.1"/>
<polygon fill="#757575" stroke="#757575" points="1208.8,-454.56 1219.19,-452.47 1209.77,-447.63 1208.8,-454.56"/>
</g>
<!-- js/objects/miscObjects.js -->
<g id="node27" class="node">
<title>js/objects/miscObjects.js</title>
<path fill="none" stroke="#c6c5fe" d="M944.83,-241.69C944.83,-241.69 786.92,-241.69 786.92,-241.69 782.83,-241.69 778.75,-237.61 778.75,-233.52 778.75,-233.52 778.75,-225.36 778.75,-225.36 778.75,-221.27 782.83,-217.19 786.92,-217.19 786.92,-217.19 944.83,-217.19 944.83,-217.19 948.92,-217.19 953,-221.27 953,-225.36 953,-225.36 953,-233.52 953,-233.52 953,-237.61 948.92,-241.69 944.83,-241.69"/>
<text text-anchor="middle" x="865.88" y="-224.39" font-family="Arial" font-size="14.00" fill="#c6c5fe">js/objects/miscObjects.js</text>
</g>
<!-- js/objects/player.js&#45;&gt;js/objects/miscObjects.js -->
<g id="edge52" class="edge">
<title>js/objects/player.js&#45;&gt;js/objects/miscObjects.js</title>
<path fill="none" stroke="#757575" d="M743.14,-229.44C750.89,-229.44 758.92,-229.44 766.99,-229.44"/>
<polygon fill="#757575" stroke="#757575" points="766.89,-232.94 776.89,-229.44 766.89,-225.94 766.89,-232.94"/>
</g>
<!-- js/objects/tile.js&#45;&gt;js/general/enums.js -->
<g id="edge54" class="edge">
<title>js/objects/tile.js&#45;&gt;js/general/enums.js</title>
<path fill="none" stroke="#757575" d="M876.63,-706.07C895.42,-729.31 939.23,-778.3 989,-798.44 1121.99,-852.26 1167.78,-817.44 1311.25,-817.44 1311.25,-817.44 1311.25,-817.44 1500.62,-817.44 1611.53,-817.44 1639.18,-769.2 1713,-686.44 1767.26,-625.6 1798.61,-531.56 1810.96,-488.03"/>
<polygon fill="#757575" stroke="#757575" points="1814.27,-489.19 1813.54,-478.62 1807.52,-487.34 1814.27,-489.19"/>
</g>
<!-- js/objects/tile.js&#45;&gt;data/biomes.js -->
<g id="edge53" class="edge">
<title>js/objects/tile.js&#45;&gt;data/biomes.js</title>
<path fill="none" stroke="#757575" d="M894.12,-680.83C918.6,-669.79 955.73,-653.79 989,-642.44 999.71,-638.79 1011.21,-635.32 1022.43,-632.17"/>
<polygon fill="#757575" stroke="#757575" points="1023.33,-635.55 1032.05,-629.54 1021.48,-628.8 1023.33,-635.55"/>
</g>
<!-- js/mechanics/forge.js -->
<g id="node23" class="node">
<title>js/mechanics/forge.js</title>
<path fill="none" stroke="#c6c5fe" d="M1153.96,-746.69C1153.96,-746.69 1020.04,-746.69 1020.04,-746.69 1015.96,-746.69 1011.88,-742.61 1011.88,-738.52 1011.88,-738.52 1011.88,-730.36 1011.88,-730.36 1011.88,-726.27 1015.96,-722.19 1020.04,-722.19 1020.04,-722.19 1153.96,-722.19 1153.96,-722.19 1158.04,-722.19 1162.12,-726.27 1162.12,-730.36 1162.12,-730.36 1162.12,-738.52 1162.12,-738.52 1162.12,-742.61 1158.04,-746.69 1153.96,-746.69"/>
<text text-anchor="middle" x="1087" y="-729.39" font-family="Arial" font-size="14.00" fill="#c6c5fe">js/mechanics/forge.js</text>
</g>
<!-- js/objects/tile.js&#45;&gt;js/mechanics/forge.js -->
<g id="edge55" class="edge">
<title>js/objects/tile.js&#45;&gt;js/mechanics/forge.js</title>
<path fill="none" stroke="#757575" d="M922.74,-703.89C948.37,-708.69 979.22,-714.46 1007.16,-719.69"/>
<polygon fill="#757575" stroke="#757575" points="1006.15,-723.06 1016.63,-721.46 1007.44,-716.18 1006.15,-723.06"/>
</g>
<!-- js/objects/building.js -->
<g id="node24" class="node">
<title>js/objects/building.js</title>
<path fill="none" stroke="#c6c5fe" d="M1375.83,-706.69C1375.83,-706.69 1248.67,-706.69 1248.67,-706.69 1244.58,-706.69 1240.5,-702.61 1240.5,-698.52 1240.5,-698.52 1240.5,-690.36 1240.5,-690.36 1240.5,-686.27 1244.58,-682.19 1248.67,-682.19 1248.67,-682.19 1375.83,-682.19 1375.83,-682.19 1379.92,-682.19 1384,-686.27 1384,-690.36 1384,-690.36 1384,-698.52 1384,-698.52 1384,-702.61 1379.92,-706.69 1375.83,-706.69"/>
<text text-anchor="middle" x="1312.25" y="-689.39" font-family="Arial" font-size="14.00" fill="#c6c5fe">js/objects/building.js</text>
</g>
<!-- js/objects/tile.js&#45;&gt;js/objects/building.js -->
<g id="edge56" class="edge">
<title>js/objects/tile.js&#45;&gt;js/objects/building.js</title>
<path fill="none" stroke="#757575" d="M922.71,-693.56C999.86,-693.74 1139.64,-694.05 1228.83,-694.25"/>
<polygon fill="#757575" stroke="#757575" points="1228.74,-697.75 1238.74,-694.28 1228.75,-690.75 1228.74,-697.75"/>
</g>
<!-- js/objects/constructionSite.js -->
<g id="node25" class="node">
<title>js/objects/constructionSite.js</title>
<path fill="none" stroke="#cfffac" d="M1176.83,-789.69C1176.83,-789.69 997.17,-789.69 997.17,-789.69 993.08,-789.69 989,-785.61 989,-781.52 989,-781.52 989,-773.36 989,-773.36 989,-769.27 993.08,-765.19 997.17,-765.19 997.17,-765.19 1176.83,-765.19 1176.83,-765.19 1180.92,-765.19 1185,-769.27 1185,-773.36 1185,-773.36 1185,-781.52 1185,-781.52 1185,-785.61 1180.92,-789.69 1176.83,-789.69"/>
<text text-anchor="middle" x="1087" y="-772.39" font-family="Arial" font-size="14.00" fill="#cfffac">js/objects/constructionSite.js</text>
</g>
<!-- js/objects/tile.js&#45;&gt;js/objects/constructionSite.js -->
<g id="edge57" class="edge">
<title>js/objects/tile.js&#45;&gt;js/objects/constructionSite.js</title>
<path fill="none" stroke="#757575" d="M887.78,-706.07C911.55,-719.95 951.87,-742.04 989,-755.44 995.45,-757.77 1002.23,-759.9 1009.09,-761.85"/>
<polygon fill="#757575" stroke="#757575" points="1007.86,-765.14 1018.42,-764.36 1009.67,-758.38 1007.86,-765.14"/>
</g>
<!-- js/objects/tile.js&#45;&gt;js/objects/itemContainer.js -->
<g id="edge58" class="edge">
<title>js/objects/tile.js&#45;&gt;js/objects/itemContainer.js</title>
<path fill="none" stroke="#757575" d="M922.59,-690.82C1003.5,-685.86 1147.9,-672.28 1185,-637.44 1234.66,-590.8 1173.88,-537.65 1221,-488.44 1223.73,-485.58 1226.76,-483.04 1229.99,-480.77"/>
<polygon fill="#757575" stroke="#757575" points="1231.49,-483.95 1238.31,-475.84 1227.92,-477.93 1231.49,-483.95"/>
</g>
<!-- commands.js -->
<g id="node11" class="node">
<title>commands.js</title>
<path fill="none" stroke="#c6c5fe" d="M126.33,-128.69C126.33,-128.69 41.92,-128.69 41.92,-128.69 37.83,-128.69 33.75,-124.61 33.75,-120.52 33.75,-120.52 33.75,-112.36 33.75,-112.36 33.75,-108.27 37.83,-104.19 41.92,-104.19 41.92,-104.19 126.33,-104.19 126.33,-104.19 130.42,-104.19 134.5,-108.27 134.5,-112.36 134.5,-112.36 134.5,-120.52 134.5,-120.52 134.5,-124.61 130.42,-128.69 126.33,-128.69"/>
<text text-anchor="middle" x="84.12" y="-111.39" font-family="Arial" font-size="14.00" fill="#c6c5fe">commands.js</text>
</g>
<!-- commands.js&#45;&gt;examples/game.js -->
<g id="edge10" class="edge">
<title>commands.js&#45;&gt;examples/game.js</title>
<path fill="none" stroke="#757575" d="M134.85,-111.45C162.4,-108.68 197.24,-105.18 228.14,-102.08"/>
<polygon fill="#757575" stroke="#757575" points="228.23,-105.59 237.83,-101.11 227.53,-98.62 228.23,-105.59"/>
</g>
<!-- data/biomes.js&#45;&gt;js/general/enums.js -->
<g id="edge11" class="edge">
<title>data/biomes.js&#45;&gt;js/general/enums.js</title>
<path fill="none" stroke="#757575" d="M1129.16,-629.13C1235.83,-659.35 1525.91,-724.36 1713,-602.44 1757.57,-573.4 1790.33,-518.42 1806.28,-487.34"/>
<polygon fill="#757575" stroke="#757575" points="1809.39,-488.94 1810.71,-478.42 1803.12,-485.82 1809.39,-488.94"/>
</g>
<!-- data/crafting.js&#45;&gt;js/general/enums.js -->
<g id="edge13" class="edge">
<title>data/crafting.js&#45;&gt;js/general/enums.js</title>
<path fill="none" stroke="#757575" d="M1686.56,-411.16C1711.85,-421.48 1747.71,-436.12 1775.46,-447.44"/>
<polygon fill="#757575" stroke="#757575" points="1774.05,-450.64 1784.63,-451.18 1776.7,-444.16 1774.05,-450.64"/>
</g>
<!-- data/items.js&#45;&gt;js/general/enums.js -->
<g id="edge14" class="edge">
<title>data/items.js&#45;&gt;js/general/enums.js</title>
<path fill="none" stroke="#757575" d="M1547.65,-614.72C1592.58,-610.41 1660.98,-599.27 1713,-570.44 1750.88,-549.45 1783.85,-510.41 1802.07,-486.01"/>
<polygon fill="#757575" stroke="#757575" points="1804.79,-488.22 1807.84,-478.07 1799.13,-484.1 1804.79,-488.22"/>
</g>
<!-- examples/app.js -->
<g id="node15" class="node">
<title>examples/app.js</title>
<path fill="none" stroke="#c6c5fe" d="M135.71,-85.69C135.71,-85.69 32.54,-85.69 32.54,-85.69 28.46,-85.69 24.38,-81.61 24.38,-77.52 24.38,-77.52 24.38,-69.36 24.38,-69.36 24.38,-65.27 28.46,-61.19 32.54,-61.19 32.54,-61.19 135.71,-61.19 135.71,-61.19 139.79,-61.19 143.88,-65.27 143.88,-69.36 143.88,-69.36 143.88,-77.52 143.88,-77.52 143.88,-81.61 139.79,-85.69 135.71,-85.69"/>
<text text-anchor="middle" x="84.12" y="-68.39" font-family="Arial" font-size="14.00" fill="#c6c5fe">examples/app.js</text>
</g>
<!-- examples/app.js&#45;&gt;examples/game.js -->
<g id="edge15" class="edge">
<title>examples/app.js&#45;&gt;examples/game.js</title>
<path fill="none" stroke="#757575" d="M144.13,-79.09C169.98,-81.57 200.64,-84.51 228.17,-87.15"/>
<polygon fill="#757575" stroke="#757575" points="227.56,-90.6 237.85,-88.07 228.23,-83.64 227.56,-90.6"/>
</g>
<!-- examples/button.js -->
<g id="node16" class="node">
<title>examples/button.js</title>
<path fill="none" stroke="#cfffac" d="M143.21,-498.69C143.21,-498.69 25.04,-498.69 25.04,-498.69 20.96,-498.69 16.88,-494.61 16.88,-490.52 16.88,-490.52 16.88,-482.36 16.88,-482.36 16.88,-478.27 20.96,-474.19 25.04,-474.19 25.04,-474.19 143.21,-474.19 143.21,-474.19 147.29,-474.19 151.38,-478.27 151.38,-482.36 151.38,-482.36 151.38,-490.52 151.38,-490.52 151.38,-494.61 147.29,-498.69 143.21,-498.69"/>
<text text-anchor="middle" x="84.12" y="-481.39" font-family="Arial" font-size="14.00" fill="#cfffac">examples/button.js</text>
</g>
<!-- examples/command.js -->
<g id="node17" class="node">
<title>examples/command.js</title>
<path fill="none" stroke="#cfffac" d="M155.21,-541.69C155.21,-541.69 13.04,-541.69 13.04,-541.69 8.96,-541.69 4.88,-537.61 4.88,-533.52 4.88,-533.52 4.88,-525.36 4.88,-525.36 4.88,-521.27 8.96,-517.19 13.04,-517.19 13.04,-517.19 155.21,-517.19 155.21,-517.19 159.29,-517.19 163.38,-521.27 163.38,-525.36 163.38,-525.36 163.38,-533.52 163.38,-533.52 163.38,-537.61 159.29,-541.69 155.21,-541.69"/>
<text text-anchor="middle" x="84.12" y="-524.39" font-family="Arial" font-size="14.00" fill="#cfffac">examples/command.js</text>
</g>
<!-- examples/modal.js -->
<g id="node18" class="node">
<title>examples/modal.js</title>
<path fill="none" stroke="#cfffac" d="M143.21,-584.69C143.21,-584.69 25.04,-584.69 25.04,-584.69 20.96,-584.69 16.88,-580.61 16.88,-576.52 16.88,-576.52 16.88,-568.36 16.88,-568.36 16.88,-564.27 20.96,-560.19 25.04,-560.19 25.04,-560.19 143.21,-560.19 143.21,-560.19 147.29,-560.19 151.38,-564.27 151.38,-568.36 151.38,-568.36 151.38,-576.52 151.38,-576.52 151.38,-580.61 147.29,-584.69 143.21,-584.69"/>
<text text-anchor="middle" x="84.12" y="-567.39" font-family="Arial" font-size="14.00" fill="#cfffac">examples/modal.js</text>
</g>
<!-- examples/selectMenu.js -->
<g id="node19" class="node">
<title>examples/selectMenu.js</title>
<path fill="none" stroke="#cfffac" d="M160.08,-627.69C160.08,-627.69 8.17,-627.69 8.17,-627.69 4.08,-627.69 0,-623.61 0,-619.52 0,-619.52 0,-611.36 0,-611.36 0,-607.27 4.08,-603.19 8.17,-603.19 8.17,-603.19 160.08,-603.19 160.08,-603.19 164.17,-603.19 168.25,-607.27 168.25,-611.36 168.25,-611.36 168.25,-619.52 168.25,-619.52 168.25,-623.61 164.17,-627.69 160.08,-627.69"/>
<text text-anchor="middle" x="84.12" y="-610.39" font-family="Arial" font-size="14.00" fill="#cfffac">examples/selectMenu.js</text>
</g>
<!-- js/general/data.js&#45;&gt;js/general/enums.js -->
<g id="edge17" class="edge">
<title>js/general/data.js&#45;&gt;js/general/enums.js</title>
<path fill="none" stroke="#757575" d="M1357.57,-357.07C1413.03,-372.68 1511.02,-399.6 1595.75,-419.44 1642.9,-430.48 1696.06,-441.34 1738.47,-449.62"/>
<polygon fill="#757575" stroke="#757575" points="1737.6,-453.02 1748.08,-451.49 1738.93,-446.15 1737.6,-453.02"/>
</g>
<!-- js/general/data.js&#45;&gt;js/general/utils.js -->
<g id="edge18" class="edge">
<title>js/general/data.js&#45;&gt;js/general/utils.js</title>
<path fill="none" stroke="#757575" d="M1373.95,-344.44C1391.1,-344.44 1409.92,-344.44 1427.61,-344.44"/>
<polygon fill="#757575" stroke="#757575" points="1427.54,-347.94 1437.54,-344.44 1427.54,-340.94 1427.54,-347.94"/>
</g>
<!-- js/general/parsers.js&#45;&gt;data/buildings.js -->
<g id="edge29" class="edge">
<title>js/general/parsers.js&#45;&gt;data/buildings.js</title>
<path fill="none" stroke="#757575" d="M1101.17,-280.05C1123.79,-301.01 1172.32,-342.92 1221,-365.44 1296.63,-400.42 1325.88,-378.11 1403.5,-408.44 1489.12,-441.9 1581.14,-500.39 1625.85,-530.44"/>
<polygon fill="#757575" stroke="#757575" points="1623.66,-533.18 1633.9,-535.89 1627.59,-527.39 1623.66,-533.18"/>
</g>
<!-- js/general/parsers.js&#45;&gt;js/general/enums.js -->
<g id="edge31" class="edge">
<title>js/general/parsers.js&#45;&gt;js/general/enums.js</title>
<path fill="none" stroke="#757575" d="M1159.07,-257.77C1282.18,-244.77 1538.62,-234.61 1713,-344.44 1753.15,-369.73 1786.36,-415.21 1803.82,-442.34"/>
<polygon fill="#757575" stroke="#757575" points="1800.65,-443.86 1808.92,-450.47 1806.58,-440.14 1800.65,-443.86"/>
</g>
<!-- js/general/parsers.js&#45;&gt;js/general/utils.js -->
<g id="edge32" class="edge">
<title>js/general/parsers.js&#45;&gt;js/general/utils.js</title>
<path fill="none" stroke="#757575" d="M1159.17,-263.8C1224.2,-262.53 1322.3,-265.81 1403.5,-290.44 1428.49,-298.02 1454.09,-313.04 1472.42,-325.32"/>
<polygon fill="#757575" stroke="#757575" points="1470.35,-328.14 1480.57,-330.94 1474.32,-322.38 1470.35,-328.14"/>
</g>
<!-- js/general/parsers.js&#45;&gt;js/general/data.js -->
<g id="edge30" class="edge">
<title>js/general/parsers.js&#45;&gt;js/general/data.js</title>
<path fill="none" stroke="#757575" d="M1124.87,-280.15C1162.84,-293.25 1222.17,-313.71 1263.66,-328.03"/>
<polygon fill="#757575" stroke="#757575" points="1262.3,-331.26 1272.9,-331.21 1264.59,-324.64 1262.3,-331.26"/>
</g>
<!-- js/mechanics/forge.js&#45;&gt;data/buildings.js -->
<g id="edge38" class="edge">
<title>js/mechanics/forge.js&#45;&gt;data/buildings.js</title>
<path fill="none" stroke="#757575" d="M1162.58,-743.6C1228.61,-748.6 1326.21,-748.21 1403.5,-715.44 1423.48,-706.97 1420.95,-693.72 1439.5,-682.44 1488.12,-652.87 1511.4,-668.45 1559.75,-638.44 1589.69,-619.86 1618.14,-590.56 1635.66,-570.7"/>
<polygon fill="#757575" stroke="#757575" points="1638.25,-573.06 1642.13,-563.2 1632.95,-568.48 1638.25,-573.06"/>
</g>
<!-- js/mechanics/forge.js&#45;&gt;js/general/enums.js -->
<g id="edge39" class="edge">
<title>js/mechanics/forge.js&#45;&gt;js/general/enums.js</title>
<path fill="none" stroke="#757575" d="M1162.41,-745.48C1290.05,-760.05 1552.43,-770.38 1713,-640.44 1764.05,-599.13 1795.69,-525.62 1809.32,-488.02"/>
<polygon fill="#757575" stroke="#757575" points="1812.62,-489.18 1812.61,-478.59 1806.01,-486.88 1812.62,-489.18"/>
</g>
<!-- js/mechanics/forge.js&#45;&gt;js/general/utils.js -->
<g id="edge40" class="edge">
<title>js/mechanics/forge.js&#45;&gt;js/general/utils.js</title>
<path fill="none" stroke="#757575" d="M1110.64,-721.86C1130.74,-710.35 1160.63,-692.44 1185,-674.44 1288.75,-597.81 1317.84,-579.87 1403.5,-483.44 1437.08,-445.64 1468.69,-395.49 1485.68,-366.92"/>
<polygon fill="#757575" stroke="#757575" points="1488.64,-368.79 1490.68,-358.4 1482.6,-365.25 1488.64,-368.79"/>
</g>
<!-- js/mechanics/forge.js&#45;&gt;js/objects/building.js -->
<g id="edge41" class="edge">
<title>js/mechanics/forge.js&#45;&gt;js/objects/building.js</title>
<path fill="none" stroke="#757575" d="M1158.94,-721.73C1181.22,-717.74 1206,-713.3 1228.98,-709.18"/>
<polygon fill="#757575" stroke="#757575" points="1229.39,-712.66 1238.62,-707.45 1228.16,-705.77 1229.39,-712.66"/>
</g>
<!-- js/objects/building.js&#45;&gt;data/items.js -->
<g id="edge42" class="edge">
<title>js/objects/building.js&#45;&gt;data/items.js</title>
<path fill="none" stroke="#757575" d="M1343.86,-681.72C1374.85,-668.85 1422.98,-648.86 1457.34,-634.59"/>
<polygon fill="#757575" stroke="#757575" points="1458.68,-637.82 1466.57,-630.75 1455.99,-631.36 1458.68,-637.82"/>
</g>
<!-- js/objects/itemContainer.js&#45;&gt;js/general/utils.js -->
<g id="edge44" class="edge">
<title>js/objects/itemContainer.js&#45;&gt;js/general/utils.js</title>
<path fill="none" stroke="#757575" d="M1333.09,-449.81C1365.76,-429.02 1431.04,-387.46 1469.13,-363.21"/>
<polygon fill="#757575" stroke="#757575" points="1470.82,-366.29 1477.37,-357.97 1467.06,-360.38 1470.82,-366.29"/>
</g>
<!-- js/objects/itemContainer.js&#45;&gt;data/items.js -->
<g id="edge43" class="edge">
<title>js/objects/itemContainer.js&#45;&gt;data/items.js</title>
<path fill="none" stroke="#757575" d="M1328.42,-475.12C1360.68,-502.1 1436.3,-565.33 1474.96,-597.65"/>
<polygon fill="#757575" stroke="#757575" points="1472.43,-600.1 1482.34,-603.83 1476.92,-594.73 1472.43,-600.1"/>
</g>
<!-- js/objects/miscObjects.js&#45;&gt;js/general/enums.js -->
<g id="edge47" class="edge">
<title>js/objects/miscObjects.js&#45;&gt;js/general/enums.js</title>
<path fill="none" stroke="#757575" d="M914.5,-216.7C1053.53,-182.54 1464.71,-103.5 1713,-288.44 1766.15,-328.03 1797.16,-403.48 1810.05,-441.43"/>
<polygon fill="#757575" stroke="#757575" points="1806.57,-442.06 1813,-450.48 1813.23,-439.89 1806.57,-442.06"/>
</g>
<!-- js/objects/miscObjects.js&#45;&gt;js/general/utils.js -->
<g id="edge49" class="edge">
<title>js/objects/miscObjects.js&#45;&gt;js/general/utils.js</title>
<path fill="none" stroke="#757575" d="M953.47,-217.19C1062.91,-205.48 1254.89,-197.6 1403.5,-259.44 1435.98,-272.95 1464.78,-302.42 1481.96,-322.84"/>
<polygon fill="#757575" stroke="#757575" points="1479.23,-325.04 1488.26,-330.59 1484.66,-320.62 1479.23,-325.04"/>
</g>
<!-- js/objects/miscObjects.js&#45;&gt;data/biomes.js -->
<g id="edge45" class="edge">
<title>js/objects/miscObjects.js&#45;&gt;data/biomes.js</title>
<path fill="none" stroke="#757575" d="M873.92,-241.88C905.27,-297.25 1032.42,-521.82 1073.29,-593.99"/>
<polygon fill="#757575" stroke="#757575" points="1070.15,-595.56 1078.13,-602.54 1076.25,-592.11 1070.15,-595.56"/>
</g>
<!-- js/objects/miscObjects.js&#45;&gt;data/items.js -->
<g id="edge46" class="edge">
<title>js/objects/miscObjects.js&#45;&gt;data/items.js</title>
<path fill="none" stroke="#757575" d="M893.08,-242.1C917.81,-254.05 955.92,-272.46 989,-288.44 1092.1,-338.23 1112.88,-362.76 1221,-400.44 1299.5,-427.8 1337.23,-391.25 1403.5,-441.44 1454.97,-480.42 1481.85,-555.58 1492.71,-593.83"/>
<polygon fill="#757575" stroke="#757575" points="1489.31,-594.66 1495.29,-603.4 1496.07,-592.84 1489.31,-594.66"/>
</g>
<!-- js/objects/miscObjects.js&#45;&gt;js/general/parsers.js -->
<g id="edge48" class="edge">
<title>js/objects/miscObjects.js&#45;&gt;js/general/parsers.js</title>
<path fill="none" stroke="#757575" d="M940.15,-242.15C960.6,-245.69 982.97,-249.57 1003.9,-253.2"/>
<polygon fill="#757575" stroke="#757575" points="1003.09,-256.61 1013.54,-254.87 1004.28,-249.72 1003.09,-256.61"/>
</g>
</g>
</svg>
